PathFileType	4	(X/Y/Z)	/Users/niels/Desktop/University/Third Semester/Perception and Action/Exam/Gymnastics Motion Tracking/Code for Gym Tracking/Analyzed Data/Webcam_Backflip/id1_3_baseline_Sports2D/id1_3_baseline_Sports2D_px_person00.trc
DataRate	CameraRate	NumFrames	NumMarkers	Units	OrigDataRate	OrigDataStartFrame	OrigNumFrames
29.87551867219917	29.87551867219917	7	22	m	29.87551867219917	120	241
Frame#	Time	Hip			RHip			RKnee			RAnkle			RBigToe			RSmallToe			RHeel			LHip			LKnee			LAnkle			LBigToe			LSmallToe			LHeel			Neck			Head			Nose			RShoulder			RElbow			RWrist			LShoulder			LElbow			LWrist		
		X1	Y1	Z1	X2	Y2	Z2	X3	Y3	Z3	X4	Y4	Z4	X5	Y5	Z5	X6	Y6	Z6	X7	Y7	Z7	X8	Y8	Z8	X9	Y9	Z9	X10	Y10	Z10	X11	Y11	Z11	X12	Y12	Z12	X13	Y13	Z13	X14	Y14	Z14	X15	Y15	Z15	X16	Y16	Z16	X17	Y17	Z17	X18	Y18	Z18	X19	Y19	Z19	X20	Y20	Z20	X21	Y21	Z21	X22	Y22	Z22
120	4.016666666666667	0.8072440336950916	-0.604174517739782	0.0	0.809897369395397	-0.6030624448218234	0.0	0.8788261330566158	-0.6877867854122595	0.0	0.9120306789910846	-0.803831603130906	0.0	0.9568127815319485	-0.7997010352023446	0.0	0.9541300921162001	-0.807160998241703	0.0	0.9081897287113415	-0.8210242126439161	0.0	0.8054762953069129	-0.6018348684534072	0.0	0.7838512184315283	-0.7054532897711564	0.0	0.7140184017710469	-0.7993376843738471	0.0	0.7496993638078564	-0.8201583386498814	0.0	0.7427940877894218	-0.8168716683656374	0.0	0.701163759636828	-0.8122412069071588	0.0	0.8290962595826444	-0.4415508928055537	0.0	0.8769799386739701	-0.38242908538614173	0.0	0.874450026728724	-0.4277773603480467	0.0	0.7975540901927359	-0.45742759162986224	0.0	0.7460625493239423	-0.5173596026813881	0.0	0.7276516837069726	-0.586494278479899	0.0	0.829199204779335	-0.4590291634552745	0.0	0.7975211242004453	-0.5279903953106874	0.0	0.789413095703387	-0.5779223768461977	0.0
121	4.050138888888889	0.7977729367880736	-0.6107416460041468	0.0	0.8010794441866642	-0.60952028049737	0.0	0.8741516090710677	-0.6914586190189554	0.0	0.9103636889105999	-0.8060434726848517	0.0	0.9557567217131246	-0.8012264785359632	0.0	0.9534532142064388	-0.8087192869638578	0.0	0.9075220630393139	-0.8245942011556536	0.0	0.7956347362025755	-0.6083763493440183	0.0	0.7722858372956094	-0.7118277059884334	0.0	0.7103867001576191	-0.8118997166381401	0.0	0.7499594689923194	-0.8276446573753357	0.0	0.7423812742392992	-0.8253456609451918	0.0	0.6987707470675724	-0.8256440427062739	0.0	0.821981753772136	-0.4496278082037164	0.0	0.8698118779183147	-0.39029610115195684	0.0	0.867484183348615	-0.43520257458902717	0.0	0.7899297551686161	-0.46481190048391474	0.0	0.7377051919861168	-0.5232926922005615	0.0	0.7212351974496691	-0.5910287298820057	0.0	0.8212080649852732	-0.4669407564865558	0.0	0.786212255945047	-0.5327750153332772	0.0	0.7655587582967903	-0.586247492003101	0.0
122	4.083611111111111	0.7895088167786819	-0.6171782558493314	0.0	0.7929814296912585	-0.6160130993465393	0.0	0.8695384583345961	-0.6955646151346282	0.0	0.9087861319966708	-0.8084791264319188	0.0	0.9548085248564311	-0.8029680547183315	0.0	0.9527053714536203	-0.8104683196615642	0.0	0.9069169644263717	-0.8280423320682556	0.0	0.7874914754896869	-0.6149333683045768	0.0	0.7640366006379955	-0.7177932378318989	0.0	0.7088168268792512	-0.8222019799704947	0.0	0.7508286257607476	-0.8339773587359426	0.0	0.7428078500231716	-0.8324492882154482	0.0	0.6980696413608403	-0.8362944936622037	0.0	0.8152960921744967	-0.4575062157113492	0.0	0.8628140298953579	-0.39823565862099825	0.0	0.8607759281468073	-0.4426525704534018	0.0	0.7830724426426524	-0.4720858371938339	0.0	0.7303839759145482	-0.5296811711839721	0.0	0.7167469573431937	-0.5967597899882744	0.0	0.813738355162044	-0.47497664222527514	0.0	0.7771600372452225	-0.5383649176729196	0.0	0.7482928066639001	-0.5937523223023522	0.0
123	4.117083333333333	0.7827804463791728	-0.62282573194308	0.0	0.7859825231457258	-0.6219046000532701	0.0	0.8651094742961292	-0.6994826484560436	0.0	0.9073193654397641	-0.8106328581846948	0.0	0.9538467156926888	-0.8043658666242536	0.0	0.9517865269946432	-0.8119156879576047	0.0	0.9064570586972087	-0.8307800995511299	0.0	0.7810641476478082	-0.6209062691445993	0.0	0.7586514282253176	-0.7227484421058193	0.0	0.708459946793902	-0.8296416886293825	0.0	0.7516745008641356	-0.8384672414114442	0.0	0.7434479083648866	-0.8375691119555672	0.0	0.6981598500727828	-0.8437845011191171	0.0	0.8091296361268725	-0.46421064269897755	0.0	0.8561479560742846	-0.4051352521299397	0.0	0.8544586520342938	-0.44917914168877904	0.0	0.7769070935783147	-0.47840086886808614	0.0	0.7244241975604528	-0.5361622741499121	0.0	0.7136623601415811	-0.6035109038392232	0.0	0.8070584582221326	-0.48207991100631636	0.0	0.7710959145051304	-0.5443532618879748	0.0	0.7383787394546509	-0.6008837281898988	0.0
124	4.150555555555556	0.7776504030018485	-0.6270658797661391	0.0	0.7802958267173824	-0.6265259135973575	0.0	0.8608823676868869	-0.7026619349778498	0.0	0.9059604004823895	-0.8120972368150604	0.0	0.9527648852689399	-0.805025374803591	0.0	0.9506220699496338	-0.8126674688484359	0.0	0.9061778736915536	-0.8324220238575621	0.0	0.7762068352332497	-0.6256521648548565	0.0	0.7555590418971785	-0.7261437864189834	0.0	0.7087630432306505	-0.8340015366353469	0.0	0.7524311498693957	-0.8407029438992382	0.0	0.7441639061542332	-0.8403893024007665	0.0	0.6985480650870735	-0.8480520729281447	0.0	0.8035756290737744	-0.4689602173832001	0.0	0.8499962816261254	-0.41007801636733904	0.0	0.8486919066032295	-0.45398190687093837	0.0	0.7714912238701911	-0.48303221296806237	0.0	0.7200874230866955	-0.5421011129506546	0.0	0.7117727135535009	-0.6104334637648228	0.0	0.801316267109196	-0.4873037375356152	0.0	0.7677400908557566	-0.5498490015095121	0.0	0.7349124522957501	-0.6072837286207695	0.0
125	4.184027777777778	0.7740191941597443	-0.6294292963881318	0.0	0.7759930280442363	-0.629320335839097	0.0	0.8568275143928774	-0.7047393364227735	0.0	0.9046945141404749	-0.8125943257237048	0.0	0.9514664902119109	-0.804810085209806	0.0	0.9491482020262505	-0.812495365976893	0.0	0.9060121534725957	-0.8327635911885892	0.0	0.7727923919377622	-0.628613628472766	0.0	0.754103454896561	-0.7275773685563173	0.0	0.7093776922335611	-0.8353574714411485	0.0	0.753317424992491	-0.8406919625221333	0.0	0.7451091305777201	-0.8409638031357225	0.0	0.6990033575626424	-0.8492838479321203	0.0	0.7987062375657187	-0.47126498957782964	0.0	0.8444571497879939	-0.412498169478928	0.0	0.8435964060793387	-0.45652064288785127	0.0	0.7669490431156046	-0.48550635193587055	0.0	0.7175043393568677	-0.5466987769473706	0.0	0.711118114968596	-0.6162990186977418	0.0	0.7965900905845301	-0.4900667848323663	0.0	0.7663229927893483	-0.5539024564163137	0.0	0.7364813239235203	-0.6121479090521904	0.0
126	4.2175	0.7717273241638684	-0.6296414968466771	0.0	0.7730755907751349	-0.6299421170820498	0.0	0.8529128481355976	-0.7055654985150437	0.0	0.903493653567505	-0.8119978216349366	0.0	0.9498832756821455	-0.8037384324378334	0.0	0.947356173618434	-0.8113184494211699	0.0	0.9057638966024913	-0.8317496806012991	0.0	0.7707819468290799	-0.6294087542335848	0.0	0.7536377743527842	-0.7268921184787328	0.0	0.7100639818776081	-0.8340274333900256	0.0	0.7544783569516531	-0.838799523972992	0.0	0.7464380204742919	-0.839610573058752	0.0	0.6994315262913628	-0.8478843154726798	0.0	0.7945772974322954	-0.47094854016989174	0.0	0.8395032731589717	-0.41222318412983205	0.0	0.839243561926967	-0.4565695692515118	0.0	0.7633733883235708	-0.48563193435290897	0.0	0.7165883116469314	-0.5492451110153593	0.0	0.7118434860454571	-0.619934121608461	0.0	0.7928906754984052	-0.4902097760945568	0.0	0.766099252595619	-0.5558311055064363	0.0	0.7418512452953632	-0.6147435461190603	0.0
